<svg preserveAspectRatio="none" width="100%" height="100%" overflow="visible" style="display: block;" viewBox="0 0 23.4667 26.6667" fill="none" xmlns="http://www.w3.org/2000/svg">
<g id="Group">
<path id="Vector" d="M22.9333 8C23.2279 8 23.4667 7.7612 23.4667 7.46667V2.66667C23.4667 2.41068 23.2846 2.19062 23.0331 2.14271L11.8331 0.009376C11.7674 -0.00312533 11.6992 -0.00312533 11.6336 0.009376L0.433595 2.14271C0.182032 2.19062 0 2.41068 0 2.66667V12.5987C0 19.4604 4.89271 25.3729 11.6336 26.6573C11.6664 26.6635 11.7 26.6667 11.7333 26.6667C11.7667 26.6667 11.8003 26.6635 11.8331 26.6573C18.574 25.3729 23.4667 19.4604 23.4667 12.5987V9.6C23.4667 9.30547 23.2279 9.06667 22.9333 9.06667C22.6388 9.06667 22.4 9.30547 22.4 9.6V12.5987C22.4 18.9151 17.9201 24.362 11.7333 25.5901C5.54661 24.362 1.06667 18.9151 1.06667 12.5987V3.10807L11.7333 1.0763L22.4 3.10807V7.46667C22.4 7.7612 22.6388 8 22.9333 8Z" fill="var(--fill-0, white)"/>
<path id="Vector_2" d="M20 11.8596C20 7.5259 16.4111 4 12 4C7.58886 4 3.99999 7.5259 3.99999 11.8596C3.99999 14.6983 5.52392 17.2666 8.00349 18.6692C8.00309 18.6919 7.99999 18.714 7.99999 18.7368C7.99999 20.9039 9.79427 22.6667 12 22.6667C14.2057 22.6667 16 20.9039 16 18.7368C16 18.714 15.9969 18.6919 15.9965 18.6692C18.4761 17.2666 20 14.6983 20 11.8596ZM9.99999 14.807C9.63248 14.807 9.33333 14.5134 9.33333 14.152C9.33333 13.0685 10.2305 12.1871 11.3333 12.1871H12.6667C13.7695 12.1871 14.6667 13.0685 14.6667 14.152C14.6667 14.5134 14.3675 14.807 14 14.807H9.99999ZM12 10.8772C11.2646 10.8772 10.6667 10.2897 10.6667 9.56725C10.6667 8.8448 11.2646 8.25731 12 8.25731C12.7353 8.25731 13.3333 8.8448 13.3333 9.56725C13.3333 10.2897 12.7353 10.8772 12 10.8772ZM12 21.3567C10.5296 21.3567 9.33333 20.1817 9.33333 18.7368C9.33333 17.2919 10.5296 16.117 12 16.117C13.4704 16.117 14.6667 17.2919 14.6667 18.7368C14.6667 20.1817 13.4704 21.3567 12 21.3567ZM15.7173 17.2947C15.5113 16.784 15.2019 16.3247 14.8108 15.9447C15.5099 15.6381 16 14.9515 16 14.152C16 12.8419 15.2077 11.7173 14.0736 11.1941C14.4389 10.7457 14.6667 10.1849 14.6667 9.56725C14.6667 8.12267 13.4704 6.94737 12 6.94737C10.5296 6.94737 9.33333 8.12267 9.33333 9.56725C9.33333 10.1849 9.56111 10.7457 9.92639 11.1941C8.79231 11.7173 7.99999 12.8419 7.99999 14.152C7.99999 14.9515 8.49007 15.6381 9.1892 15.9447C8.79813 16.3247 8.48872 16.784 8.28271 17.2947C6.44755 16.0864 5.33333 14.073 5.33333 11.8596C5.33333 8.24804 8.32389 5.30994 12 5.30994C15.6761 5.30994 18.6667 8.24804 18.6667 11.8596C18.6667 14.073 17.5524 16.0864 15.7173 17.2947Z" fill="var(--fill-0, white)"/>
<path id="Vector_3" d="M12.4229 17.4896L11.7333 18.1792L11.5771 18.0229C11.3687 17.8146 11.0312 17.8146 10.8229 18.0229C10.6146 18.2312 10.6146 18.5688 10.8229 18.7771L11.3562 19.3104C11.5634 19.5176 11.904 19.5168 12.1104 19.3104L13.1771 18.2437C13.3854 18.0354 13.3854 17.6979 13.1771 17.4896C12.9687 17.2813 12.6312 17.2812 12.4229 17.4896Z" fill="var(--fill-0, white)"/>
</g>
</svg>
